# xmcd
#
# Track frame offsets:
#	150
#	15646
#	31614
#	52804
#	68797
#	86826
#	101838
#	114764
#	129551
#	146160
#	163467
#	179186
#	194776
#	210575
#	226129
#	244505
#
# Disc length: 3519 seconds
#
# Revision: 1
# Processed by: cddbd v1.4PL0 Copyright (c) Steve Scherf et al.
# Submitted via: EasyCDDAExtractor 6.2.0.3
#
DISCID=e20dbd10
DTITLE=Shania Twain - Come on Over [International]
DYEAR=1900
DGENRE=Country
TTITLE0=You're Still the One
TTITLE1=When
TTITLE2=From This Moment On
TTITLE3=Black Eyes, Blue Tears
TTITLE4=I Won't Leave You Lonely
TTITLE5=I'm Holdin' on to Love (To Save My Life)
TTITLE6=Come on Over
TTITLE7=You've Got a Way
TTITLE8=Whatever You Do! Don't!
TTITLE9=Man! I Feel Like a Woman!
TTITLE10=Love Gets Me Every Time
TTITLE11=Don't Be Stupid (You Know I Love You)
TTITLE12=That Don't Impress Me Much
TTITLE13=Honey, I'm Home
TTITLE14=If You Wanna Touch Her, Ask!
TTITLE15=Rock This Country!
EXTD=
EXTT0=
EXTT1=
EXTT2=
EXTT3=
EXTT4=
EXTT5=
EXTT6=
EXTT7=
EXTT8=
EXTT9=
EXTT10=
EXTT11=
EXTT12=
EXTT13=
EXTT14=
EXTT15=
PLAYORDER=
